<svg width="105" height="35" viewBox="0 0 105 35" fill="none" xmlns="http://www.w3.org/2000/svg">
<path d="M41.1891 15.5072C41.1423 14.0714 40.6907 12.9226 39.8343 12.0613C38.9773 11.1997 37.7962 10.769 36.2911 10.769C34.7855 10.769 33.5698 11.1997 32.6438 12.0613C31.7175 12.9226 31.1616 14.0714 30.9765 15.5072H41.1891ZM43.5163 22.3633C42.5437 23.6555 41.4784 24.5591 40.3206 25.0735C39.1624 25.5879 37.8196 25.8452 36.2911 25.8452C35.0173 25.8452 33.871 25.6119 32.8522 25.1453C31.8329 24.6786 30.9705 24.0504 30.2644 23.2607C29.5577 22.4711 29.0138 21.5377 28.6318 20.4608C28.2497 19.384 28.0586 18.2353 28.0586 17.0149C28.0586 15.7226 28.267 14.5325 28.6839 13.4432C29.1008 12.3545 29.6794 11.4212 30.4208 10.6433C31.1616 9.86592 32.0414 9.2614 33.0606 8.83052C34.0794 8.39983 35.191 8.18448 36.3954 8.18448C37.5297 8.18448 38.5718 8.38184 39.5217 8.7767C40.4709 9.17156 41.2873 9.74593 41.9706 10.4996C42.6534 11.2535 43.1804 12.1751 43.551 13.2637C43.9213 14.353 44.1069 15.5914 44.1069 16.979V17.8764H30.9765C31.0226 18.5943 31.1903 19.2825 31.4802 19.9404C31.7695 20.5988 32.1457 21.1732 32.609 21.6634C33.0722 22.1541 33.6165 22.5428 34.2417 22.83C34.867 23.1172 35.5498 23.2607 36.2911 23.2607C37.4723 23.2607 38.4677 23.0454 39.2786 22.6146C40.0888 22.1839 40.8184 21.55 41.4669 20.7121L43.5163 22.3633Z" fill="#F7F5F5"/>
<path d="M50.8816 17.0149C50.8816 17.9004 51.0145 18.72 51.2807 19.4737C51.5469 20.2276 51.9349 20.886 52.4446 21.448C52.9534 22.0106 53.5618 22.4532 54.2683 22.7762C54.9743 23.0992 55.7674 23.2607 56.6475 23.2607C57.5276 23.2607 58.3207 23.0992 59.0272 22.7762C59.7332 22.4532 60.3411 22.0106 60.8508 21.448C61.3596 20.886 61.748 20.2276 62.0147 19.4737C62.2805 18.72 62.4138 17.9004 62.4138 17.0149C62.4138 16.1298 62.2805 15.3097 62.0147 14.556C61.748 13.8021 61.3596 13.1442 60.8508 12.5817C60.3411 12.0198 59.7332 11.5766 59.0272 11.2536C58.3207 10.9305 57.5276 10.769 56.6475 10.769C55.7674 10.769 54.9743 10.9305 54.2683 11.2536C53.5618 11.5766 52.9534 12.0198 52.4446 12.5817C51.9349 13.1442 51.5469 13.8021 51.2807 14.556C51.0145 15.3097 50.8816 16.1298 50.8816 17.0149ZM48.1719 8.61519H50.8816V11.0561H50.9511C51.6918 10.147 52.5539 9.44074 53.5386 8.93819C54.5229 8.43568 55.6053 8.18449 56.7868 8.18449C58.06 8.18449 59.2235 8.40599 60.2776 8.84852C61.3309 9.29157 62.2281 9.90746 62.9698 10.6972C63.7106 11.4869 64.2897 12.4202 64.7064 13.4971C65.1231 14.574 65.3319 15.7467 65.3319 17.0149C65.3319 18.2836 65.1231 19.4557 64.7064 20.5326C64.2897 21.6096 63.7166 22.5428 62.987 23.3325C62.2578 24.1223 61.3943 24.7387 60.3994 25.1812C59.4031 25.6237 58.3378 25.8452 57.2035 25.8452C55.7447 25.8452 54.4646 25.516 53.365 24.8581C52.265 24.2003 51.4599 23.3925 50.9511 22.4351H50.8816V33.5989H48.1719V8.61519Z" fill="#F7F5F5"/>
<path d="M77.1759 17.3379C75.4393 17.3379 74.061 17.5893 73.0421 18.0918C72.0226 18.5943 71.5134 19.4199 71.5134 20.5686C71.5134 21.6219 71.8554 22.3696 72.5384 22.812C73.2215 23.2553 74.0722 23.4762 75.0912 23.4762C75.8784 23.4762 76.568 23.3387 77.1586 23.0634C77.7486 22.7885 78.2406 22.4235 78.6344 21.9686C79.0283 21.5142 79.3297 20.9813 79.538 20.3711C79.7459 19.7609 79.8618 19.1092 79.8856 18.4148V17.3379H77.1759ZM69.325 10.769C70.159 9.88395 71.149 9.23152 72.295 8.81264C73.442 8.39412 74.6053 8.18448 75.7864 8.18448C78.1948 8.18448 79.9314 8.77117 80.9966 9.94329C82.0618 11.1162 82.5949 12.8992 82.5949 15.2919V22.507C82.5949 22.986 82.6173 23.4824 82.664 23.9966C82.7103 24.5115 82.7682 24.9839 82.8379 25.4146H80.2328C80.1398 25.032 80.0879 24.6069 80.0762 24.1403C80.064 23.6736 80.059 23.2607 80.059 22.9019H79.9898C79.4567 23.7633 78.7442 24.4694 77.8528 25.0197C76.9614 25.5699 75.8906 25.8452 74.6399 25.8452C73.8064 25.8452 73.0248 25.7376 72.295 25.5223C71.5657 25.3069 70.9289 24.99 70.3846 24.571C69.8403 24.1526 69.4063 23.6321 69.0821 23.0095C68.7573 22.3875 68.5957 21.6696 68.5957 20.8557C68.5957 19.4681 68.9433 18.379 69.6381 17.5893C70.3323 16.7995 71.1952 16.2133 72.2254 15.8302C73.256 15.4477 74.368 15.2082 75.5603 15.1123C76.753 15.017 77.8472 14.9688 78.8433 14.9688H79.8856V14.4663C79.8856 13.2457 79.5324 12.3248 78.8255 11.7022C78.1191 11.0802 77.1291 10.769 75.8555 10.769C74.9758 10.769 74.1134 10.9187 73.2682 11.2177C72.4225 11.5171 71.6755 11.9776 71.0275 12.5996L69.325 10.769Z" fill="#F7F5F5"/>
<path d="M87.8048 8.61518H90.5139V25.4146H87.8048V8.61518ZM87.1797 2.04615C87.1797 1.49594 87.3704 1.01761 87.7523 0.610365C88.1347 0.203682 88.6038 0.000171661 89.1596 0.000171661C89.7154 0.000171661 90.1845 0.203682 90.5664 0.610365C90.9483 1.01761 91.1395 1.49594 91.1395 2.04615C91.1395 2.64473 90.9539 3.1354 90.5838 3.51796C90.213 3.90096 89.7383 4.09236 89.1596 4.09236C88.5803 4.09236 88.1051 3.90096 87.7355 3.51796C87.3648 3.1354 87.1797 2.64473 87.1797 2.04615Z" fill="#F7F5F5"/>
<path d="M17.4434 15.0246C17.4434 14.7272 17.5231 13.662 17.6016 13.3041C18.1159 10.9609 20.2967 8.00568 24.5384 8.1722C24.8787 8.18556 25.1173 8.20743 25.3897 8.27781V10.8772C25.0271 10.8388 24.2421 10.8297 23.8253 10.857C22.6064 10.9367 20.8254 11.8219 20.246 14.171C20.0616 14.9186 20.118 16.554 20.118 17.0818L20.1167 25.399H17.4434V15.0246Z" fill="#F7F5F5"/>
<path d="M95.9004 15.042C95.9004 14.7445 95.98 13.6792 96.059 13.3213C96.5732 10.9781 98.754 8.02296 102.996 8.18949C103.336 8.20279 103.574 8.22474 103.847 8.29512V10.8944C103.484 10.8561 102.7 10.8469 102.283 10.8742C101.063 10.954 99.2828 11.8392 98.703 14.1883C98.5189 14.9359 98.575 16.5713 98.575 17.0991L98.5737 25.4163H95.9004V15.042Z" fill="#F7F5F5"/>
<path d="M6.14112 16.261L13.9916 8.61521H10.1359L2.73694 16.0098L2.73486 0.000164032L0.0253906 2.70406L0.0274885 25.4146H2.73694V16.5842L10.7959 25.4146H14.7905L6.14112 16.261Z" fill="#F03957"/>
<path d="M3.56905 30.8025H2.9129C2.8547 30.5929 2.73585 30.4238 2.55638 30.2949C2.3768 30.1661 2.14799 30.1017 1.86988 30.1017C1.51079 30.1017 1.2213 30.2382 1.00132 30.5109C0.781338 30.7835 0.671308 31.1448 0.671308 31.5943C0.671308 32.054 0.781916 32.4176 1.00318 32.6853C1.22441 32.9531 1.51585 33.0869 1.8774 33.0869C2.14799 33.0869 2.37298 33.0276 2.55256 32.9089C2.73207 32.7901 2.8547 32.6197 2.9205 32.3974H3.57661C3.50834 32.7789 3.31999 33.0869 3.01148 33.3218C2.70299 33.5567 2.32368 33.6741 1.87364 33.6741C1.30724 33.6741 0.853348 33.4866 0.512 33.1115C0.170684 32.7365 0 32.2307 0 31.5943C0 30.968 0.170684 30.4648 0.512 30.0846C0.853348 29.7046 1.30471 29.5146 1.86605 29.5146C2.33128 29.5146 2.71563 29.6383 3.01908 29.8858C3.32252 30.1333 3.50581 30.4389 3.56905 30.8025Z" fill="#6F7375"/>
<path d="M6.59565 30.0941C6.27449 30.0941 6.00832 30.2002 5.79721 30.4124C5.58605 30.6245 5.46915 30.9036 5.44637 31.2496H7.69553C7.68794 30.9036 7.58363 30.6245 7.38261 30.4124C7.18158 30.2002 6.91927 30.0941 6.59565 30.0941ZM7.68034 32.4694H8.33276C8.27707 32.8205 8.08998 33.109 7.77141 33.3351C7.45284 33.5611 7.07478 33.6741 6.63732 33.6741C6.06332 33.6741 5.60758 33.4885 5.27002 33.1172C4.93242 32.7459 4.76367 32.2434 4.76367 31.6095C4.76367 30.9756 4.93178 30.4679 5.26813 30.0866C5.60438 29.7053 6.05073 29.5146 6.60699 29.5146C7.15316 29.5146 7.58553 29.6945 7.90414 30.0544C8.22271 30.4143 8.38202 30.9024 8.38202 31.5185V31.7761H5.44637V31.814C5.44637 32.203 5.55637 32.5136 5.77637 32.7459C5.99633 32.9784 6.28842 33.0945 6.65255 33.0945C6.90783 33.0945 7.12853 33.0383 7.31432 32.9259C7.5002 32.8135 7.62215 32.6613 7.68034 32.4694Z" fill="#6F7375"/>
<path d="M11.6714 33.0868C12.033 33.0868 12.3232 32.9511 12.5419 32.6795C12.7606 32.4081 12.87 32.0464 12.87 31.5943C12.87 31.1447 12.7606 30.7835 12.5419 30.5108C12.3232 30.2381 12.033 30.1017 11.6714 30.1017C11.32 30.1017 11.0342 30.2394 10.8143 30.5145C10.5942 30.7899 10.4843 31.1498 10.4843 31.5943C10.4843 32.0388 10.5936 32.3987 10.8124 32.674C11.0311 32.9492 11.3174 33.0868 11.6714 33.0868ZM11.7928 29.5145C12.3163 29.5145 12.7391 29.7058 13.0615 30.0883C13.3839 30.4711 13.5451 30.9729 13.5451 31.5943C13.5451 32.2155 13.3845 32.7175 13.0634 33.1001C12.7423 33.4827 12.3238 33.674 11.808 33.674C11.5197 33.674 11.2624 33.6135 11.0361 33.4922C10.8099 33.371 10.6322 33.198 10.5033 32.9732H10.4881V35H9.82812V29.5523H10.4539V30.2154H10.4691C10.5879 30.0031 10.7674 29.8334 11.0077 29.7058C11.2479 29.5783 11.5096 29.5145 11.7928 29.5145Z" fill="#6F7375"/>
<path d="M16.6118 31.7949H15.6445V33.0905H16.7369C16.9847 33.0905 17.1743 33.0357 17.3058 32.9258C17.4372 32.8159 17.503 32.6575 17.503 32.4504C17.503 32.2282 17.4296 32.0634 17.2831 31.956C17.1363 31.8487 16.9126 31.7949 16.6118 31.7949ZM16.661 30.0978H15.6445V31.2495H16.5549C17.0681 31.2495 17.3248 31.055 17.3248 30.666C17.3248 30.4818 17.2679 30.3409 17.1541 30.2438C17.0403 30.1466 16.8759 30.0978 16.661 30.0978ZM14.9922 33.6361V29.5523H16.7444C17.1237 29.5523 17.4227 29.6458 17.6414 29.8327C17.8602 30.0195 17.9696 30.2747 17.9696 30.5979C17.9696 30.805 17.9051 30.9932 17.7761 31.1623C17.6471 31.3317 17.4891 31.4365 17.302 31.4768V31.5071C17.5574 31.5425 17.7628 31.6473 17.9183 31.8216C18.0739 31.9958 18.1516 32.2092 18.1516 32.4617C18.1516 32.8229 18.0265 33.109 17.7761 33.3198C17.5258 33.5307 17.1844 33.6361 16.752 33.6361H14.9922Z" fill="#6F7375"/>
<path d="M20.2676 33.6361H19.6152V29.5523H20.2676V32.6171H20.2979L22.4029 29.5523H23.0553V33.6361H22.4029V30.5714H22.3726L20.2676 33.6361Z" fill="#6F7375"/>
<path d="M28.071 30.8025H27.4148C27.3566 30.5929 27.2378 30.4238 27.0583 30.2949C26.8788 30.1661 26.6499 30.1017 26.3718 30.1017C26.0127 30.1017 25.7232 30.2382 25.5033 30.5109C25.2833 30.7835 25.1733 31.1448 25.1733 31.5943C25.1733 32.054 25.2839 32.4176 25.5052 32.6853C25.7263 32.9531 26.0178 33.0869 26.3793 33.0869C26.6499 33.0869 26.8749 33.0276 27.0545 32.9089C27.234 32.7901 27.3566 32.6197 27.4224 32.3974H28.0785C28.0103 32.7789 27.8219 33.0869 27.5134 33.3218C27.2049 33.5567 26.8256 33.6741 26.3756 33.6741C25.8092 33.6741 25.3553 33.4866 25.0139 33.1115C24.6726 32.7365 24.502 32.2307 24.502 31.5943C24.502 30.968 24.6726 30.4648 25.0139 30.0846C25.3553 29.7046 25.8066 29.5146 26.368 29.5146C26.8332 29.5146 27.2176 29.6383 27.521 29.8858C27.8244 30.1333 28.0077 30.4389 28.071 30.8025Z" fill="#6F7375"/>
<path d="M32.1976 33.6361V31.7874H30.1192V33.6361H29.4668V29.5523H30.1192V31.2419H32.1976V29.5523H32.85V33.6361H32.1976Z" fill="#6F7375"/>
<path d="M37.9703 33.6361V29.5523H38.6227V33.6361H37.9703ZM35.9184 31.4086H35.1484V33.0905H35.9184C36.1864 33.0905 36.4007 33.0143 36.5613 32.8614C36.7218 32.7086 36.8021 32.5048 36.8021 32.2496C36.8021 31.9945 36.7218 31.7907 36.5613 31.6378C36.4007 31.485 36.1864 31.4086 35.9184 31.4086ZM34.4961 33.6361V29.5523H35.1484V30.8631H35.9184C36.3861 30.8631 36.7591 30.9881 37.0373 31.2381C37.3154 31.4881 37.4545 31.8253 37.4545 32.2496C37.4545 32.6739 37.3154 33.011 37.0373 33.2611C36.7591 33.5111 36.3861 33.6361 35.9184 33.6361H34.4961Z" fill="#6F7375"/>
<path d="M40.7815 27.7642H41.267C41.267 27.9891 41.3346 28.1759 41.47 28.3249C41.6052 28.474 41.7828 28.5484 42.0029 28.5484C42.2228 28.5484 42.4004 28.474 42.5358 28.3249C42.671 28.1759 42.7387 27.9891 42.7387 27.7642H43.2241C43.2241 28.1128 43.1109 28.3957 42.8847 28.6129C42.6584 28.8301 42.3644 28.9387 42.0029 28.9387C41.6412 28.9387 41.3473 28.8301 41.121 28.6129C40.8947 28.3957 40.7815 28.1128 40.7815 27.7642ZM40.9219 33.6361H40.2695V29.5523H40.9219V32.6171H40.9522L43.0573 29.5523H43.7096V33.6361H43.0573V30.5714H43.0269L40.9219 33.6361Z" fill="#6F7375"/>
<path d="M59.2625 34.7158H58.6477V33.6361H55.3027V29.5523H55.9551V33.0905H57.9574V29.5523H58.6102V33.0905H59.2625V34.7158Z" fill="#6F7375"/>
<path d="M62.1874 30.0941C61.8666 30.0941 61.6004 30.2002 61.3893 30.4124C61.1782 30.6245 61.061 30.9036 61.0384 31.2496H63.2875C63.2801 30.9036 63.1754 30.6245 62.9745 30.4124C62.7736 30.2002 62.5111 30.0941 62.1874 30.0941ZM63.2722 32.4694H63.9245C63.869 32.8205 63.6819 33.109 63.3634 33.3351C63.0449 33.5611 62.6666 33.6741 62.2291 33.6741C61.655 33.6741 61.1995 33.4885 60.862 33.1172C60.5245 32.7459 60.3555 32.2434 60.3555 31.6095C60.3555 30.9756 60.5235 30.4679 60.8601 30.0866C61.1962 29.7053 61.6425 29.5146 62.199 29.5146C62.7449 29.5146 63.1773 29.6945 63.4958 30.0544C63.8148 30.4143 63.974 30.9024 63.974 31.5185V31.7761H61.0384V31.814C61.0384 32.203 61.1481 32.5136 61.3684 32.7459C61.5884 32.9784 61.8805 33.0945 62.2444 33.0945C62.5 33.0945 62.7203 33.0383 62.9064 32.9259C63.0921 32.8135 63.2143 32.6613 63.2722 32.4694Z" fill="#6F7375"/>
<path d="M68.151 33.6361V31.7874H66.0727V33.6361H65.4199V29.5523H66.0727V31.2419H68.151V29.5523H68.8033V33.6361H68.151Z" fill="#6F7375"/>
<path d="M73.4227 29.5523V30.0978H72.0954V33.6361H71.4426V30.0978H70.1152V29.5523H73.4227Z" fill="#6F7375"/>
<path d="M76.5797 33.0868C76.9407 33.0868 77.2314 32.9511 77.4504 32.6795C77.6689 32.4081 77.7782 32.0464 77.7782 31.5943C77.7782 31.1447 77.6689 30.7835 77.4504 30.5108C77.2314 30.2381 76.9407 30.1017 76.5797 30.1017C76.2279 30.1017 75.9425 30.2393 75.7225 30.5145C75.5026 30.7898 75.3924 31.1498 75.3924 31.5943C75.3924 32.0388 75.5021 32.3987 75.7206 32.674C75.9391 32.9492 76.2255 33.0868 76.5797 33.0868ZM76.701 29.5145C77.2242 29.5145 77.6473 29.7058 77.9698 30.0883C78.2918 30.4711 78.4535 30.9729 78.4535 31.5943C78.4535 32.2155 78.2927 32.7175 77.9717 33.1C77.6507 33.4827 77.2324 33.674 76.716 33.674C76.4281 33.674 76.1706 33.6135 75.9444 33.4922C75.7182 33.371 75.5406 33.198 75.4111 32.9732H75.3967V35H74.7363V29.5523H75.362V30.2153H75.3774C75.4958 30.0031 75.6758 29.8334 75.916 29.7058C76.1562 29.5783 76.418 29.5145 76.701 29.5145Z" fill="#6F7375"/>
</svg>
