<svg width="196" height="65" viewBox="0 0 196 65" fill="none" xmlns="http://www.w3.org/2000/svg">
<path d="M77.6724 28.799C77.5842 26.1325 76.7327 23.999 75.1177 22.3993C73.5018 20.7993 71.2744 19.9994 68.4364 19.9994C65.5972 19.9994 63.3047 20.7993 61.5584 22.3993C59.8117 23.999 58.7634 26.1325 58.4145 28.799H77.6724ZM82.061 41.5316C80.2269 43.9315 78.2181 45.6096 76.0347 46.5648C73.8508 47.5201 71.3185 47.998 68.4364 47.998C66.0343 47.998 63.8727 47.5647 61.9515 46.6983C60.0294 45.8315 58.4031 44.6648 57.0717 43.1982C55.739 41.7319 54.7134 39.9985 53.9931 37.9984C53.2724 35.9987 52.9121 33.8653 52.9121 31.5988C52.9121 29.1989 53.3051 26.9887 54.0913 24.9658C54.8774 22.9438 55.9684 21.2106 57.3666 19.766C58.7634 18.3222 60.4225 17.1995 62.3445 16.3993C64.2657 15.5995 66.3619 15.1995 68.633 15.1995C70.7719 15.1995 72.7371 15.5661 74.5283 16.2994C76.3183 17.0327 77.8578 18.0994 79.1461 19.4991C80.4337 20.8992 81.4275 22.6107 82.1264 24.6323C82.8247 26.6553 83.1746 28.9553 83.1746 31.5323V33.1988H58.4145C58.5013 34.5321 58.8176 35.8102 59.3642 37.032C59.9099 38.2547 60.6191 39.3214 61.493 40.2318C62.3663 41.1431 63.3928 41.865 64.5716 42.3983C65.7507 42.9317 67.0385 43.1982 68.4364 43.1982C70.6636 43.1982 72.5407 42.7983 74.0699 41.9984C75.5977 41.1985 76.9735 40.0213 78.1963 38.4652L82.061 41.5316Z" fill="#040606"/>
<path d="M95.9477 31.5986C95.9477 33.2432 96.1983 34.7653 96.7003 36.165C97.2023 37.5651 97.9339 38.7879 98.8951 39.8316C99.8546 40.8764 101.002 41.6983 102.334 42.2981C103.665 42.8981 105.161 43.1979 106.82 43.1979C108.48 43.1979 109.976 42.8981 111.308 42.2981C112.639 41.6983 113.786 40.8764 114.747 39.8316C115.706 38.7879 116.439 37.5651 116.942 36.165C117.443 34.7653 117.694 33.2432 117.694 31.5986C117.694 29.9548 117.443 28.4319 116.942 27.0321C116.439 25.632 115.706 24.4102 114.747 23.3655C113.786 22.322 112.639 21.499 111.308 20.899C109.976 20.2991 108.48 19.9992 106.82 19.9992C105.161 19.9992 103.665 20.2991 102.334 20.899C101.002 21.499 99.8546 22.322 98.8951 23.3655C97.9339 24.4102 97.2023 25.632 96.7003 27.0321C96.1983 28.4319 95.9477 29.9548 95.9477 31.5986ZM90.8379 15.9992H95.9477V20.5322H96.0787C97.4755 18.844 99.1011 17.5324 100.958 16.599C102.814 15.6658 104.855 15.1993 107.083 15.1993C109.484 15.1993 111.678 15.6107 113.666 16.4325C115.652 17.2553 117.344 18.3991 118.743 19.8657C120.139 21.3324 121.232 23.0655 122.017 25.0656C122.803 27.0656 123.197 29.2435 123.197 31.5986C123.197 33.9548 122.803 36.1316 122.017 38.1316C121.232 40.1316 120.151 41.8648 118.775 43.3314C117.4 44.798 115.772 45.9428 113.896 46.7646C112.017 47.5865 110.008 47.9978 107.869 47.9978C105.118 47.9978 102.704 47.3865 100.631 46.1647C98.5564 44.9429 97.0382 43.4428 96.0787 41.6648H95.9477V62.3975H90.8379V15.9992Z" fill="#040606"/>
<path d="M145.533 32.1987C142.259 32.1987 139.66 32.6656 137.738 33.5989C135.816 34.5321 134.855 36.0653 134.855 38.1987C134.855 40.1548 135.5 41.5434 136.788 42.365C138.076 43.1881 139.681 43.5985 141.602 43.5985C143.087 43.5985 144.387 43.3431 145.501 42.8318C146.613 42.3213 147.541 41.6434 148.284 40.7986C149.026 39.9548 149.595 38.9651 149.988 37.8319C150.38 36.6986 150.598 35.4884 150.643 34.1988V32.1987H145.533ZM130.729 19.9994C132.301 18.3557 134.168 17.144 136.329 16.3661C138.492 15.5889 140.686 15.1995 142.913 15.1995C147.455 15.1995 150.729 16.2891 152.738 18.4659C154.747 20.6442 155.752 23.9555 155.752 28.399V41.7985C155.752 42.6881 155.794 43.6099 155.882 44.5649C155.97 45.5211 156.079 46.3984 156.21 47.1983H151.298C151.122 46.4878 151.025 45.6982 151.003 44.8317C150.98 43.965 150.97 43.1982 150.97 42.5318H150.84C149.834 44.1316 148.491 45.4431 146.81 46.4649C145.129 47.4867 143.11 47.998 140.751 47.998C139.179 47.998 137.705 47.7982 136.329 47.3983C134.954 46.9983 133.753 46.4098 132.727 45.6317C131.7 44.8546 130.882 43.8879 130.271 42.7318C129.658 41.5765 129.354 40.2433 129.354 38.7318C129.354 36.1548 130.009 34.1322 131.319 32.6656C132.628 31.1988 134.255 30.1102 136.198 29.3988C138.142 28.6884 140.238 28.2436 142.487 28.0656C144.736 27.8885 146.799 27.7991 148.678 27.7991H150.643V26.8658C150.643 24.599 149.977 22.8887 148.644 21.7325C147.312 20.5773 145.445 19.9994 143.043 19.9994C141.385 19.9994 139.758 20.2773 138.165 20.8327C136.57 21.3886 135.161 22.2439 133.939 23.3991L130.729 19.9994Z" fill="#040606"/>
<path d="M165.577 15.9994H170.686V47.1982H165.577V15.9994ZM164.398 3.79979C164.398 2.77797 164.758 1.88963 165.478 1.13332C166.199 0.378059 167.084 0.000110626 168.132 0.000110626C169.18 0.000110626 170.065 0.378059 170.785 1.13332C171.505 1.88963 171.866 2.77797 171.866 3.79979C171.866 4.91143 171.516 5.82269 170.818 6.53315C170.118 7.24444 169.223 7.59988 168.132 7.59988C167.04 7.59988 166.143 7.24444 165.447 6.53315C164.747 5.82269 164.398 4.91143 164.398 3.79979Z" fill="#040606"/>
<path d="M32.8926 27.9032C32.8926 27.3508 33.043 25.3725 33.1911 24.7079C34.1608 20.3561 38.2732 14.868 46.2718 15.1772C46.9135 15.202 47.3634 15.2426 47.8771 15.3733V20.2007C47.1934 20.1295 45.713 20.1125 44.9271 20.1632C42.6285 20.3113 39.2702 21.9552 38.1775 26.3178C37.8297 27.7062 37.9363 30.7434 37.9363 31.7236L37.9338 47.1699H32.8926V27.9032Z" fill="#040606"/>
<path d="M180.842 27.9356C180.842 27.3832 180.992 25.4048 181.141 24.7402C182.11 20.3885 186.223 14.9003 194.222 15.2096C194.863 15.2343 195.313 15.275 195.827 15.4058V20.233C195.143 20.1618 193.663 20.1448 192.877 20.1955C190.578 20.3437 187.22 21.9876 186.127 26.3502C185.78 27.7387 185.885 30.7758 185.885 31.7559L185.883 47.2021H180.842V27.9356Z" fill="#040606"/>
<path d="M11.5794 30.1987L26.3832 15.9995H19.1123L5.16008 29.7323L5.15616 9.91821e-05L0.046875 5.02163L0.050831 47.1982H5.16008V30.799L20.3569 47.1982H27.8896L11.5794 30.1987Z" fill="#F03957"/>
<path d="M6.73021 57.2043H5.4929C5.38315 56.815 5.15904 56.5008 4.8206 56.2616C4.48196 56.0223 4.05049 55.9028 3.52606 55.9028C2.84891 55.9028 2.30303 56.1561 1.8882 56.6626C1.47338 57.169 1.2659 57.8399 1.2659 58.6748C1.2659 59.5284 1.47447 60.2037 1.89172 60.7009C2.3089 61.1981 2.85846 61.4466 3.54025 61.4466C4.05049 61.4466 4.47476 61.3365 4.81341 61.116C5.15191 60.8955 5.38315 60.5789 5.50722 60.1662H6.74447C6.61573 60.8746 6.26055 61.4466 5.6788 61.883C5.09707 62.3191 4.3818 62.5371 3.53315 62.5371C2.46508 62.5371 1.60917 62.189 0.965485 61.4924C0.321862 60.7958 0 59.8566 0 58.6748C0 57.5116 0.321862 56.577 0.965485 55.871C1.60917 55.1652 2.46032 54.8123 3.51883 54.8123C4.39612 54.8123 5.1209 55.0421 5.69312 55.5017C6.26533 55.9614 6.61096 56.5289 6.73021 57.2043Z" fill="#6F7375"/>
<path d="M12.439 55.8886C11.8333 55.8886 11.3314 56.0857 10.9333 56.4796C10.5351 56.8736 10.3147 57.3919 10.2717 58.0345H14.513C14.4987 57.3919 14.302 56.8736 13.9229 56.4796C13.5439 56.0857 13.0492 55.8886 12.439 55.8886ZM14.4844 60.2999H15.7147C15.6096 60.9519 15.2568 61.4878 14.6561 61.9075C14.0554 62.3273 13.3425 62.5371 12.5175 62.5371C11.4351 62.5371 10.5757 62.1924 9.93921 61.503C9.30259 60.8134 8.98438 59.8802 8.98438 58.7029C8.98438 57.5256 9.30137 56.5828 9.93563 55.8746C10.5697 55.1665 11.4114 54.8123 12.4603 54.8123C13.4903 54.8123 14.3056 55.1465 14.9064 55.8149C15.5071 56.4832 15.8076 57.3898 15.8076 58.534V59.0123H10.2717V59.0827C10.2717 59.8051 10.4792 60.382 10.894 60.8134C11.3088 61.2452 11.8596 61.4608 12.5463 61.4608C13.0276 61.4608 13.4438 61.3565 13.7942 61.1476C14.1447 60.9389 14.3746 60.6563 14.4844 60.2999Z" fill="#6F7375"/>
<path d="M22.0092 61.447C22.691 61.447 23.2381 61.1949 23.6506 60.6906C24.063 60.1866 24.2693 59.5147 24.2693 58.6751C24.2693 57.8402 24.063 57.1693 23.6506 56.6629C23.2381 56.1565 22.691 55.9031 22.0092 55.9031C21.3464 55.9031 20.8075 56.1588 20.3928 56.6699C19.9779 57.1812 19.7706 57.8496 19.7706 58.6751C19.7706 59.5006 19.9767 60.1689 20.3892 60.6802C20.8016 61.1913 21.3416 61.447 22.0092 61.447ZM22.2381 54.8127C23.2251 54.8127 24.0225 55.1679 24.6305 55.8783C25.2383 56.5892 25.5423 57.5212 25.5423 58.6751C25.5423 59.8288 25.2395 60.761 24.634 61.4715C24.0284 62.1822 23.2393 62.5375 22.2666 62.5375C21.7231 62.5375 21.2379 62.425 20.8111 62.1998C20.3845 61.9747 20.0495 61.6534 19.8063 61.2359H19.7777V65H18.5332V54.8829H19.7133V56.1142H19.7419C19.9659 55.7201 20.3045 55.4049 20.7575 55.1679C21.2105 54.9312 21.704 54.8127 22.2381 54.8127Z" fill="#6F7375"/>
<path d="M31.3236 59.0475H29.4996V61.4536H31.5595C32.0268 61.4536 32.3843 61.3518 32.6323 61.1476C32.8802 60.9436 33.0042 60.6494 33.0042 60.2647C33.0042 59.8521 32.8659 59.546 32.5895 59.3465C32.3128 59.1473 31.8909 59.0475 31.3236 59.0475ZM31.4165 55.8956H29.4996V58.0346H31.2163C32.184 58.0346 32.6681 57.6734 32.6681 56.951C32.6681 56.6088 32.5608 56.3472 32.3462 56.1667C32.1316 55.9862 31.8216 55.8956 31.4165 55.8956ZM28.2695 62.4668V54.8826H31.5738C32.289 54.8826 32.8528 55.0562 33.2653 55.4034C33.6777 55.7503 33.884 56.2241 33.884 56.8245C33.884 57.209 33.7624 57.5584 33.5192 57.8727C33.276 58.1871 32.978 58.3818 32.6252 58.4567V58.5128C33.1067 58.5786 33.4941 58.7733 33.7873 59.097C34.0807 59.4204 34.2273 59.8168 34.2273 60.2858C34.2273 60.9566 33.9913 61.4878 33.5192 61.8794C33.0471 62.271 32.4035 62.4668 31.5881 62.4668H28.2695Z" fill="#6F7375"/>
<path d="M38.2184 62.4668H36.9883V54.8826H38.2184V60.5744H38.2756L42.2451 54.8826H43.4753V62.4668H42.2451V56.7752H42.1879L38.2184 62.4668Z" fill="#6F7375"/>
<path d="M52.9333 57.2043H51.696C51.5862 56.815 51.3621 56.5008 51.0237 56.2616C50.6851 56.0223 50.2536 55.9028 49.7292 55.9028C49.052 55.9028 48.5061 56.1561 48.0913 56.6626C47.6765 57.169 47.469 57.8399 47.469 58.6748C47.469 59.5284 47.6776 60.2037 48.0949 60.7009C48.5119 61.1981 49.0615 61.4466 49.7434 61.4466C50.2536 61.4466 50.6778 61.3365 51.0165 61.116C51.3551 60.8955 51.5862 60.5789 51.7103 60.1662H52.9476C52.8188 60.8746 52.4636 61.4466 51.8819 61.883C51.3001 62.3191 50.5849 62.5371 49.7363 62.5371C48.6681 62.5371 47.8122 62.189 47.1685 61.4924C46.5249 60.7958 46.2031 59.8566 46.2031 58.6748C46.2031 57.5116 46.5249 56.577 47.1685 55.871C47.8122 55.1652 48.6633 54.8123 49.7219 54.8123C50.5992 54.8123 51.324 55.0421 51.8962 55.5017C52.4683 55.9614 52.814 56.5289 52.9333 57.2043Z" fill="#6F7375"/>
<path d="M60.716 62.4668V59.0335H56.7966V62.4668H55.5664V54.8826H56.7966V58.0204H60.716V54.8826H61.9461V62.4668H60.716Z" fill="#6F7375"/>
<path d="M71.6022 62.4668V54.8826H72.8324V62.4668H71.6022ZM67.7328 58.33H66.2809V61.4536H67.7328C68.2382 61.4536 68.6423 61.312 68.9451 61.0281C69.2478 60.7443 69.3993 60.3657 69.3993 59.8918C69.3993 59.4181 69.2478 59.0396 68.9451 58.7557C68.6423 58.4719 68.2382 58.33 67.7328 58.33ZM65.0508 62.4668V54.8826H66.2809V57.317H67.7328C68.6148 57.317 69.3182 57.549 69.8428 58.0134C70.3672 58.4777 70.6295 59.1039 70.6295 59.8918C70.6295 60.6799 70.3672 61.3059 69.8428 61.7703C69.3182 62.2346 68.6148 62.4668 67.7328 62.4668H65.0508Z" fill="#6F7375"/>
<path d="M76.903 51.5619H77.8184C77.8184 51.9795 77.946 52.3264 78.2012 52.6031C78.4562 52.8799 78.7912 53.0182 79.206 53.0182C79.6208 53.0182 79.9558 52.8799 80.211 52.6031C80.466 52.3264 80.5936 51.9795 80.5936 51.5619H81.509C81.509 52.2091 81.2956 52.7346 80.869 53.1379C80.4422 53.5413 79.8878 53.743 79.206 53.743C78.524 53.743 77.9699 53.5413 77.5432 53.1379C77.1164 52.7346 76.903 52.2091 76.903 51.5619ZM77.1676 62.4668H75.9375V54.8826H77.1676V60.5744H77.2249L81.1944 54.8826H82.4246V62.4668H81.1944V56.7752H81.1372L77.1676 62.4668Z" fill="#6F7375"/>
<path d="M111.752 64.4727H110.593V62.4675H104.285V54.8833H105.515V61.4543H109.291V54.8833H110.522V61.4543H111.752V64.4727Z" fill="#6F7375"/>
<path d="M117.267 55.8886C116.662 55.8886 116.16 56.0857 115.762 56.4796C115.364 56.8736 115.143 57.3919 115.1 58.0345H119.341C119.327 57.3919 119.13 56.8736 118.751 56.4796C118.372 56.0857 117.877 55.8886 117.267 55.8886ZM119.313 60.2999H120.543C120.438 60.9519 120.085 61.4878 119.485 61.9075C118.884 62.3273 118.171 62.5371 117.346 62.5371C116.263 62.5371 115.404 62.1924 114.768 61.503C114.131 60.8134 113.812 59.8802 113.812 58.7029C113.812 57.5256 114.129 56.5828 114.764 55.8746C115.398 55.1665 116.24 54.8123 117.289 54.8123C118.318 54.8123 119.134 55.1465 119.734 55.8149C120.336 56.4832 120.636 57.3898 120.636 58.534V59.0123H115.1V59.0827C115.1 59.8051 115.307 60.382 115.723 60.8134C116.137 61.2452 116.688 61.4608 117.374 61.4608C117.856 61.4608 118.272 61.3565 118.623 61.1476C118.973 60.9389 119.203 60.6563 119.313 60.2999Z" fill="#6F7375"/>
<path d="M128.511 62.4668V59.0335H124.592V62.4668H123.361V54.8826H124.592V58.0204H128.511V54.8826H129.741V62.4668H128.511Z" fill="#6F7375"/>
<path d="M138.456 54.8826V55.8956H135.953V62.4668H134.722V55.8956H132.219V54.8826H138.456Z" fill="#6F7375"/>
<path d="M144.408 61.447C145.089 61.447 145.637 61.1949 146.05 60.6906C146.462 60.1865 146.668 59.5147 146.668 58.6751C146.668 57.8402 146.462 57.1693 146.05 56.6629C145.637 56.1565 145.089 55.9031 144.408 55.9031C143.744 55.9031 143.206 56.1588 142.791 56.6698C142.377 57.1811 142.169 57.8496 142.169 58.6751C142.169 59.5006 142.376 60.1689 142.788 60.6802C143.2 61.1913 143.74 61.447 144.408 61.447ZM144.637 54.8126C145.623 54.8126 146.421 55.1678 147.029 55.8783C147.636 56.5892 147.941 57.5211 147.941 58.6751C147.941 59.8288 147.638 60.761 147.033 61.4715C146.427 62.1822 145.639 62.5375 144.665 62.5375C144.122 62.5375 143.636 62.425 143.21 62.1998C142.783 61.9747 142.448 61.6534 142.204 61.2359H142.177V65H140.932V54.8829H142.112V56.1142H142.141C142.364 55.72 142.703 55.4049 143.156 55.1678C143.609 54.9312 144.103 54.8126 144.637 54.8126Z" fill="#6F7375"/>
</svg>
