<svg width="149" height="49" viewBox="0 0 149 49" fill="none" xmlns="http://www.w3.org/2000/svg">
<path d="M58.8418 21.7102C58.775 19.7001 58.1299 18.0918 56.9064 16.8858C55.6822 15.6797 53.9948 15.0767 51.8448 15.0767C49.6939 15.0767 47.9571 15.6797 46.6342 16.8858C45.3109 18.0918 44.5168 19.7001 44.2524 21.7102H58.8418ZM62.1664 31.3087C60.777 33.1178 59.2552 34.3828 57.6011 35.1029C55.9466 35.8231 54.0282 36.1833 51.8448 36.1833C50.025 36.1833 48.3874 35.8567 46.932 35.2035C45.4759 34.5501 44.2438 33.6706 43.2352 32.565C42.2256 31.4596 41.4486 30.1529 40.9029 28.6452C40.3569 27.1377 40.084 25.5294 40.084 23.8209C40.084 22.0117 40.3817 20.3455 40.9773 18.8206C41.5728 17.2963 42.3994 15.9898 43.4586 14.9007C44.5168 13.8123 45.7737 12.966 47.2297 12.3628C48.6852 11.7598 50.2732 11.4583 51.9937 11.4583C53.6141 11.4583 55.1029 11.7346 56.4599 12.2874C57.8159 12.8402 58.9822 13.6443 59.9582 14.6995C60.9337 15.755 61.6865 17.0452 62.2161 18.5692C62.745 20.0942 63.0101 21.828 63.0101 23.7707V25.027H44.2524C44.3183 26.0321 44.5578 26.9956 44.972 27.9166C45.3853 28.8384 45.9226 29.6425 46.5846 30.3288C47.2462 31.0158 48.0239 31.56 48.9169 31.962C49.8102 32.3641 50.7858 32.565 51.8448 32.565C53.5321 32.565 54.9542 32.2636 56.1126 31.6605C57.27 31.0575 58.3123 30.1701 59.2387 28.997L62.1664 31.3087Z" fill="#F7F5F5"/>
<path d="M72.6875 23.8207C72.6875 25.0605 72.8773 26.2079 73.2576 27.2631C73.6379 28.3186 74.1922 29.2403 74.9203 30.0272C75.6472 30.8148 76.5163 31.4343 77.5256 31.8865C78.5342 32.3388 79.6671 32.5649 80.9244 32.5649C82.1817 32.5649 83.3147 32.3388 84.3239 31.8865C85.3326 31.4343 86.201 30.8148 86.9292 30.0272C87.656 29.2403 88.2109 28.3186 88.5919 27.2631C88.9715 26.2079 89.162 25.0605 89.162 23.8207C89.162 22.5816 88.9715 21.4335 88.5919 20.3783C88.2109 19.3228 87.656 18.4018 86.9292 17.6143C86.201 16.8276 85.3326 16.2072 84.3239 15.7549C83.3147 15.3026 82.1817 15.0766 80.9244 15.0766C79.6671 15.0766 78.5342 15.3026 77.5256 15.7549C76.5163 16.2072 75.6472 16.8276 74.9203 17.6143C74.1922 18.4018 73.6379 19.3228 73.2576 20.3783C72.8773 21.4335 72.6875 22.5816 72.6875 23.8207ZM68.8164 12.0612H72.6875V15.4784H72.7867C73.8449 14.2057 75.0764 13.2169 76.4832 12.5134C77.8893 11.8099 79.4356 11.4582 81.1235 11.4582C82.9423 11.4582 84.6044 11.7683 86.1104 12.3878C87.615 13.0081 88.8968 13.8704 89.9563 14.976C91.0145 16.0816 91.8419 17.3881 92.4372 18.8958C93.0324 20.4035 93.3307 22.0453 93.3307 23.8207C93.3307 25.597 93.0324 27.2379 92.4372 28.7456C91.8419 30.2533 91.0231 31.5599 89.9808 32.6655C88.9391 33.7711 87.7056 34.634 86.2843 35.2536C84.861 35.8731 83.3391 36.1832 81.7187 36.1832C79.6347 36.1832 77.806 35.7223 76.2352 34.8013C74.6637 33.8803 73.5136 32.7494 72.7867 31.4091H72.6875V47.0383H68.8164V12.0612Z" fill="#F7F5F5"/>
<path d="M110.252 24.2731C107.771 24.2731 105.802 24.625 104.346 25.3286C102.89 26.0321 102.162 27.1879 102.162 28.7962C102.162 30.2708 102.651 31.3175 103.627 31.9369C104.602 32.5574 105.818 32.8668 107.273 32.8668C108.398 32.8668 109.383 32.6742 110.227 32.2888C111.07 31.904 111.773 31.3929 112.335 30.7561C112.898 30.12 113.328 29.3739 113.626 28.5196C113.923 27.6653 114.089 26.753 114.123 25.7808V24.2731H110.252ZM99.036 15.0767C100.227 13.8376 101.642 12.9242 103.279 12.3378C104.917 11.7518 106.579 11.4583 108.267 11.4583C111.707 11.4583 114.188 12.2797 115.71 13.9207C117.231 15.5627 117.993 18.059 117.993 21.4087V31.5098C117.993 32.1805 118.025 32.8754 118.092 33.5953C118.158 34.3161 118.241 34.9775 118.34 35.5804H114.619C114.486 35.0449 114.412 34.4497 114.395 33.7964C114.377 33.1431 114.37 32.565 114.37 32.0627H114.271C113.51 33.2686 112.492 34.2573 111.219 35.0276C109.945 35.7979 108.415 36.1833 106.629 36.1833C105.438 36.1833 104.321 36.0327 103.279 35.7312C102.237 35.4297 101.327 34.986 100.55 34.3995C99.7722 33.8137 99.1521 33.0849 98.6889 32.2134C98.225 31.3425 97.9941 30.3375 97.9941 29.198C97.9941 27.2553 98.4907 25.7306 99.4832 24.625C100.475 23.5193 101.708 22.6987 103.179 22.1624C104.652 21.6269 106.24 21.2916 107.943 21.1573C109.647 21.0239 111.211 20.9564 112.634 20.9564H114.123V20.2529C114.123 18.5441 113.618 17.2548 112.608 16.3832C111.599 15.5123 110.185 15.0767 108.365 15.0767C107.109 15.0767 105.877 15.2862 104.669 15.7049C103.461 16.1239 102.394 16.7687 101.468 17.6395L99.036 15.0767Z" fill="#F7F5F5"/>
<path d="M125.436 12.0612H129.306V35.5803H125.436V12.0612ZM124.543 2.86456C124.543 2.09427 124.815 1.4246 125.361 0.854462C125.907 0.285107 126.577 0.000190735 127.371 0.000190735C128.165 0.000190735 128.836 0.285107 129.381 0.854462C129.927 1.4246 130.2 2.09427 130.2 2.86456C130.2 3.70257 129.935 4.38952 129.406 4.9251C128.876 5.4613 128.198 5.72925 127.371 5.72925C126.544 5.72925 125.865 5.4613 125.337 4.9251C124.807 4.38952 124.543 3.70257 124.543 2.86456Z" fill="#F7F5F5"/>
<path d="M24.9199 21.0344C24.9199 20.618 25.0339 19.1267 25.146 18.6257C25.8807 15.3451 28.9961 11.2079 35.0557 11.441C35.5418 11.4597 35.8827 11.4903 36.2718 11.5889V15.228C35.7539 15.1743 34.6324 15.1615 34.037 15.1997C32.2956 15.3113 29.7514 16.5506 28.9236 19.8393C28.6602 20.886 28.7409 23.1755 28.7409 23.9145L28.739 35.5586H24.9199V21.0344Z" fill="#F7F5F5"/>
<path d="M137.002 21.0587C137.002 20.6423 137.116 19.1509 137.229 18.6499C137.963 15.3694 141.079 11.2321 147.138 11.4653C147.624 11.4839 147.965 11.5146 148.354 11.6132V15.2522C147.836 15.1985 146.715 15.1857 146.12 15.2239C144.378 15.3356 141.834 16.5748 141.006 19.8636C140.743 20.9103 140.823 23.1998 140.823 23.9387L140.821 35.5828H137.002V21.0587Z" fill="#F7F5F5"/>
<path d="M8.77191 22.7653L19.9869 12.0612H14.4787L3.90879 22.4137L3.90582 0.000183105L0.0351562 3.78564L0.0381532 35.5803H3.90879V23.2178L15.4216 35.5803H21.1281L8.77191 22.7653Z" fill="#F03957"/>
<path d="M5.09865 43.1234H4.16129C4.07815 42.83 3.90836 42.5931 3.65197 42.4128C3.39542 42.2324 3.06855 42.1423 2.67126 42.1423C2.15827 42.1423 1.74472 42.3333 1.43045 42.7151C1.1162 43.0968 0.959011 43.6026 0.959011 44.2319C0.959011 44.8754 1.11702 45.3845 1.43312 45.7593C1.74916 46.1341 2.1655 46.3215 2.682 46.3215C3.06855 46.3215 3.38997 46.2385 3.64652 46.0723C3.90296 45.9061 4.07815 45.6674 4.17214 45.3562H5.10945C5.01192 45.8903 4.74284 46.3215 4.30212 46.6504C3.86142 46.9792 3.31954 47.1436 2.67663 47.1436C1.86749 47.1436 1.21907 46.8812 0.731428 46.356C0.243835 45.8309 0 45.1229 0 44.2319C0 43.3551 0.243835 42.6506 0.731428 42.1184C1.21907 41.5863 1.86388 41.3203 2.66578 41.3203C3.3304 41.3203 3.87947 41.4935 4.31297 41.8399C4.74646 42.1865 5.0083 42.6143 5.09865 43.1234Z" fill="#D9D9D9"/>
<path d="M9.42375 42.1316C8.96495 42.1316 8.58471 42.2802 8.28312 42.5772C7.98146 42.8742 7.81446 43.2649 7.78192 43.7493H10.995C10.9842 43.2649 10.8352 42.8742 10.548 42.5772C10.2608 42.2802 9.88606 42.1316 9.42375 42.1316ZM10.9733 45.457H11.9053C11.8258 45.9485 11.5585 46.3525 11.1034 46.6689C10.6483 46.9854 10.1082 47.1436 9.48328 47.1436C8.66329 47.1436 8.01222 46.8837 7.53 46.364C7.04772 45.8442 6.80664 45.1407 6.80664 44.2532C6.80664 43.3657 7.04679 42.6549 7.52729 42.1211C8.00765 41.5872 8.6453 41.3203 9.43995 41.3203C10.2202 41.3203 10.8379 41.5722 11.293 42.076C11.7481 42.5799 11.9757 43.2633 11.9757 44.1258V44.4864H7.78192V44.5394C7.78192 45.084 7.93907 45.5189 8.25336 45.8442C8.56758 46.1696 8.98485 46.3322 9.50503 46.3322C9.86972 46.3322 10.185 46.2535 10.4504 46.0961C10.716 45.9388 10.8902 45.7257 10.9733 45.457Z" fill="#D9D9D9"/>
<path d="M16.6743 46.3216C17.1909 46.3216 17.6054 46.1315 17.9178 45.7514C18.2302 45.3714 18.3865 44.865 18.3865 44.232C18.3865 43.6026 18.2302 43.0969 17.9178 42.7151C17.6054 42.3333 17.1909 42.1424 16.6743 42.1424C16.1722 42.1424 15.764 42.3351 15.4498 42.7204C15.1355 43.1058 14.9784 43.6097 14.9784 44.232C14.9784 44.8543 15.1346 45.3581 15.4471 45.7436C15.7595 46.1288 16.1686 46.3216 16.6743 46.3216ZM16.8477 41.3203C17.5955 41.3203 18.1996 41.5881 18.6601 42.1237C19.1207 42.6596 19.351 43.3621 19.351 44.232C19.351 45.1017 19.1215 45.8044 18.6629 46.3401C18.2041 46.8758 17.6062 47.1436 16.8694 47.1436C16.4576 47.1436 16.09 47.0589 15.7667 46.8891C15.4435 46.7194 15.1897 46.4772 15.0055 46.1624H14.9838V49H14.041V41.3733H14.935V42.3015H14.9567C15.1264 42.0043 15.3829 41.7668 15.7261 41.5881C16.0693 41.4097 16.4431 41.3203 16.8477 41.3203Z" fill="#D9D9D9"/>
<path d="M23.7297 44.5129H22.3479V46.3268H23.9085C24.2624 46.3268 24.5333 46.25 24.7212 46.0961C24.9089 45.9423 25.0029 45.7205 25.0029 45.4306C25.0029 45.1195 24.8981 44.8888 24.6887 44.7384C24.4791 44.5882 24.1594 44.5129 23.7297 44.5129ZM23.8001 42.1369H22.3479V43.7494H23.6484C24.3815 43.7494 24.7483 43.4771 24.7483 42.9325C24.7483 42.6746 24.667 42.4773 24.5044 42.3413C24.3419 42.2052 24.107 42.1369 23.8001 42.1369ZM21.416 47.0906V41.3733H23.9192C24.461 41.3733 24.8882 41.5041 25.2007 41.7658C25.5131 42.0274 25.6694 42.3845 25.6694 42.8371C25.6694 43.127 25.5773 43.3904 25.393 43.6273C25.2088 43.8643 24.983 44.0111 24.7157 44.0676V44.1099C25.0806 44.1595 25.374 44.3062 25.5962 44.5502C25.8184 44.7941 25.9295 45.0929 25.9295 45.4464C25.9295 45.9521 25.7507 46.3526 25.393 46.6478C25.0354 46.943 24.5478 47.0906 23.9301 47.0906H21.416Z" fill="#D9D9D9"/>
<path d="M28.9534 47.0906H28.0215V41.3733H28.9534V45.664H28.9967L32.0039 41.3733H32.9359V47.0906H32.0039V42.8H31.9606L28.9534 47.0906Z" fill="#D9D9D9"/>
<path d="M40.1006 43.1234H39.1632C39.0801 42.83 38.9103 42.5931 38.6539 42.4128C38.3974 42.2324 38.0705 42.1423 37.6732 42.1423C37.1602 42.1423 36.7466 42.3333 36.4324 42.7151C36.1181 43.0968 35.961 43.6026 35.961 44.2319C35.961 44.8754 36.119 45.3845 36.4351 45.7593C36.7511 46.1341 37.1674 46.3215 37.6839 46.3215C38.0705 46.3215 38.3919 46.2385 38.6484 46.0723C38.9049 45.9061 39.0801 45.6674 39.1741 45.3562H40.1114C40.0138 45.8903 39.7448 46.3215 39.3041 46.6504C38.8633 46.9792 38.3215 47.1436 37.6786 47.1436C36.8694 47.1436 36.221 46.8812 35.7333 46.356C35.2457 45.8309 35.002 45.1229 35.002 44.2319C35.002 43.3551 35.2457 42.6506 35.7333 42.1184C36.221 41.5863 36.8657 41.3203 37.6677 41.3203C38.3323 41.3203 38.8814 41.4935 39.3149 41.8399C39.7483 42.1865 40.0102 42.6143 40.1006 43.1234Z" fill="#D9D9D9"/>
<path d="M45.9969 47.0906V44.5024H43.0277V47.0906H42.0957V41.3733H43.0277V43.7387H45.9969V41.3733H46.9288V47.0906H45.9969Z" fill="#D9D9D9"/>
<path d="M54.2444 47.0906V41.3733H55.1764V47.0906H54.2444ZM51.3131 43.972H50.2131V46.3268H51.3131C51.696 46.3268 52.0021 46.22 52.2315 46.006C52.4608 45.7921 52.5756 45.5067 52.5756 45.1495C52.5756 44.7924 52.4608 44.507 52.2315 44.293C52.0021 44.079 51.696 43.972 51.3131 43.972ZM49.2812 47.0906V41.3733H50.2131V43.2084H51.3131C51.9813 43.2084 52.5141 43.3833 52.9115 43.7334C53.3088 44.0834 53.5076 44.5555 53.5076 45.1495C53.5076 45.7436 53.3088 46.2154 52.9115 46.5656C52.5141 46.9155 51.9813 47.0906 51.3131 47.0906H49.2812Z" fill="#D9D9D9"/>
<path d="M58.2607 38.8699H58.9543C58.9543 39.1848 59.0509 39.4463 59.2442 39.6548C59.4374 39.8636 59.6912 39.9678 60.0055 39.9678C60.3197 39.9678 60.5735 39.8636 60.7668 39.6548C60.96 39.4463 61.0567 39.1848 61.0567 38.8699H61.7501C61.7501 39.3579 61.5884 39.754 61.2653 40.058C60.9419 40.3621 60.5219 40.5142 60.0055 40.5142C59.4888 40.5142 59.069 40.3621 58.7457 40.058C58.4224 39.754 58.2607 39.3579 58.2607 38.8699ZM58.4612 47.0906H57.5293V41.3733H58.4612V45.664H58.5046L61.5118 41.3733H62.4437V47.0906H61.5118V42.8H61.4685L58.4612 47.0906Z" fill="#D9D9D9"/>
<path d="M84.6608 48.6023H83.7824V47.0907H79.0039V41.3734H79.9358V46.3269H82.7963V41.3734H83.7289V46.3269H84.6608V48.6023Z" fill="#D9D9D9"/>
<path d="M88.8398 42.1316C88.3814 42.1316 88.0011 42.2802 87.6995 42.5772C87.3979 42.8742 87.2306 43.2649 87.1982 43.7493H90.4112C90.4006 43.2649 90.2512 42.8742 89.9641 42.5772C89.6771 42.2802 89.3021 42.1316 88.8398 42.1316ZM90.3894 45.457H91.3213C91.2419 45.9485 90.9747 46.3525 90.5197 46.6689C90.0647 46.9854 89.5243 47.1436 88.8993 47.1436C88.0792 47.1436 87.4284 46.8837 86.9462 46.364C86.4641 45.8442 86.2227 45.1407 86.2227 44.2532C86.2227 43.3657 86.4627 42.6549 86.9436 42.1211C87.4237 41.5872 88.0613 41.3203 88.8563 41.3203C89.6361 41.3203 90.2538 41.5722 90.7088 42.076C91.1645 42.5799 91.3921 43.2633 91.3921 44.1258V44.4864H87.1982V44.5394C87.1982 45.084 87.3549 45.5189 87.6698 45.8442C87.9839 46.1696 88.4013 46.3322 88.9211 46.3322C89.2862 46.3322 89.601 46.2535 89.8669 46.0961C90.1321 45.9388 90.3067 45.7257 90.3894 45.457Z" fill="#D9D9D9"/>
<path d="M97.3566 47.0906V44.5024H94.3876V47.0906H93.4551V41.3733H94.3876V43.7387H97.3566V41.3733H98.2885V47.0906H97.3566Z" fill="#D9D9D9"/>
<path d="M104.891 41.3733V42.1369H102.995V47.0906H102.062V42.1369H100.166V41.3733H104.891Z" fill="#D9D9D9"/>
<path d="M109.399 46.3216C109.915 46.3216 110.33 46.1315 110.643 45.7514C110.955 45.3714 111.111 44.8649 111.111 44.232C111.111 43.6026 110.955 43.0969 110.643 42.7151C110.33 42.3333 109.915 42.1424 109.399 42.1424C108.896 42.1424 108.489 42.3351 108.174 42.7203C107.86 43.1058 107.703 43.6097 107.703 44.232C107.703 44.8543 107.86 45.3581 108.172 45.7436C108.484 46.1288 108.893 46.3216 109.399 46.3216ZM109.572 41.3203C110.32 41.3203 110.924 41.5881 111.385 42.1237C111.845 42.6595 112.076 43.3621 112.076 44.232C112.076 45.1017 111.846 45.8044 111.388 46.3401C110.929 46.8758 110.331 47.1436 109.594 47.1436C109.182 47.1436 108.815 47.0589 108.491 46.8891C108.168 46.7194 107.915 46.4772 107.73 46.1624H107.709V49H106.766V41.3732H107.659V42.3015H107.681C107.851 42.0043 108.108 41.7668 108.451 41.5881C108.794 41.4096 109.168 41.3203 109.572 41.3203Z" fill="#D9D9D9"/>
</svg>
