<svg width="32" height="32" viewBox="0 0 32 32" fill="none" xmlns="http://www.w3.org/2000/svg">
<g clip-path="url(#clip0_2_5336)">
<path d="M16.8635 4.43072C13.4896 4.40318 10.7329 7.11676 10.7073 10.4907L10.5146 24.4114C10.494 27.0308 12.609 29.1795 15.2285 29.2001C17.8479 29.2208 19.9961 27.1062 20.0163 24.4872L20.2085 10.566C20.2232 8.6914 18.7162 7.16045 16.8416 7.14569C14.9675 7.1314 13.4361 8.63889 13.4218 10.5121L13.3388 21.0398C13.3364 21.4156 13.6368 21.7208 14.0126 21.7243C14.3879 21.7272 14.6936 21.4263 14.6966 21.051L14.7795 10.5223C14.7888 9.39973 15.7089 8.49409 16.8314 8.50245C17.9545 8.5113 18.8606 9.4318 18.8517 10.5548L18.659 24.4755C18.6442 26.3501 17.1138 27.8567 15.2392 27.8419C13.365 27.8276 11.8576 26.2962 11.8728 24.4221L12.063 10.6372C12.0837 8.01293 14.2284 5.90168 16.8508 5.92426C19.4765 5.94447 21.5858 8.08731 21.5651 10.7116L21.4837 21.1035C21.4803 21.4803 21.7808 21.7855 22.157 21.7875C22.5328 21.7909 22.8385 21.49 22.841 21.1142L22.9234 10.5869C22.951 7.21302 20.2374 4.45634 16.8635 4.43072Z" fill="#525252"/>
</g>
<defs>
<clipPath id="clip0_2_5336">
<rect width="21.7199" height="21.7199" fill="white" transform="translate(0.453125 16.1689) rotate(-44.5486)"/>
</clipPath>
</defs>
</svg>
